<svg xmlns="http://www.w3.org/2000/svg" xmlns:xlink="http://www.w3.org/1999/xlink" width="1920" zoomAndPan="magnify" viewBox="0 0 1440 809.999993" height="1080" preserveAspectRatio="xMidYMid meet" version="1.0"><defs><clipPath id="id1"><path d="M 47.472656 265.203125 L 1392.222656 265.203125 L 1392.222656 508.335938 L 47.472656 508.335938 Z M 47.472656 265.203125 " clip-rule="nonzero"/></clipPath></defs><g clip-path="url(#id1)"><path fill="#00d85d" d="M 991.023438 431.425781 C 999.683594 428.488281 1006.679688 423.519531 1011.3125 415.429688 C 1012.261719 413.75 1012.714844 411.878906 1012.558594 409.953125 C 1012.429688 408.238281 1012.183594 406.351562 1010.402344 405.582031 C 1008.699219 404.839844 1007.605469 406.375 1006.539062 407.351562 C 1000.320312 413.074219 995.496094 419.851562 991.660156 427.34375 C 991.101562 428.421875 989.929688 429.476562 991.023438 431.425781 Z M 544.960938 421.972656 C 547.300781 424.066406 549.601562 423.832031 551.8125 423.351562 C 559.410156 421.710938 565.703125 418.160156 568.679688 410.511719 C 569.65625 408.003906 569.8125 405.128906 567.355469 403.191406 C 565.15625 401.460938 562.984375 402.890625 561.058594 404.035156 C 553.828125 408.339844 549.171875 414.882812 544.960938 421.972656 Z M 786.71875 454.734375 C 780.59375 451.691406 777.042969 446.644531 773.882812 440.949219 C 771.476562 443.261719 770.96875 445.929688 770.148438 448.375 C 768.082031 454.515625 766.886719 460.820312 767.953125 467.324219 C 768.578125 471.070312 769.667969 471.550781 772.816406 469.339844 C 778.253906 465.515625 782.6875 460.71875 786.71875 454.734375 Z M 779.867188 430.804688 C 779.839844 438.722656 781.828125 444.5625 786.070312 449.53125 C 787.953125 451.757812 788.878906 451.703125 790.308594 449.195312 C 795.824219 439.554688 800.296875 429.515625 801.507812 418.316406 C 801.910156 414.660156 801.597656 411.070312 799.789062 407.792969 C 797.902344 404.347656 795.667969 403.710938 792.234375 405.464844 C 789.621094 406.792969 787.757812 408.9375 786.054688 411.253906 C 781.464844 417.496094 781.476562 425.078125 779.867188 430.804688 Z M 486.953125 428.683594 C 487.578125 427.875 488.113281 427.34375 488.449219 426.707031 C 498.101562 408.261719 506.214844 389.234375 510.519531 368.75 C 513.097656 356.546875 514.320312 344.296875 511.769531 331.925781 C 511.042969 328.363281 509.832031 324.980469 507.632812 322.003906 C 506.113281 319.921875 504.421875 319.597656 502.289062 321.066406 C 498.453125 323.707031 495.5 327.179688 493.015625 331.03125 C 481.648438 348.628906 474.769531 367.839844 473.167969 388.726562 C 472.3125 400.105469 474.183594 411.148438 480.089844 421.191406 C 481.792969 424.089844 483.636719 426.980469 486.953125 428.683594 Z M 629.753906 410.121094 C 631.964844 409.640625 633.359375 408.066406 634.894531 406.820312 C 644.335938 399.132812 653.515625 391.144531 662.230469 382.625 C 679.449219 365.796875 694.40625 347.144531 706.773438 326.464844 C 712.859375 316.292969 717.660156 305.550781 720.234375 293.921875 C 721.429688 288.535156 722.265625 283.101562 721.082031 277.535156 C 719.324219 269.324219 715.863281 267.804688 708.726562 272.304688 C 704.003906 275.296875 700.21875 279.316406 696.65625 283.542969 C 684.195312 298.277344 673.933594 314.484375 664.960938 331.523438 C 652.386719 355.441406 641.148438 379.972656 631.03125 405.023438 C 630.417969 406.53125 629.3125 407.976562 629.753906 410.121094 Z M 794.601562 454.203125 C 799.269531 455.398438 803.496094 454.34375 807.671875 452.953125 C 818.90625 449.195312 828.53125 442.859375 836.671875 434.316406 C 839.832031 431.011719 842.890625 427.589844 845.621094 423.949219 C 847.832031 420.996094 850.382812 419.824219 853.957031 420.410156 C 857.558594 420.996094 859.964844 422.699219 860.1875 426.652344 C 862.332031 426.09375 862.851562 424.300781 863.828125 423 C 870.566406 413.945312 878.382812 405.921875 886.914062 398.546875 C 889.359375 396.441406 891.945312 394.476562 894.847656 393.003906 C 898.710938 391.082031 902.714844 390.273438 907.019531 391.222656 C 914.054688 392.773438 916.683594 396.503906 915.5 403.554688 C 914.695312 408.289062 912.910156 412.710938 911.039062 417.082031 C 906.929688 426.707031 902.871094 436.355469 899.4375 446.253906 C 898.773438 448.179688 898.214844 450.15625 897.421875 452.71875 C 899.671875 452.082031 900.285156 450.664062 901.140625 449.597656 C 905.199219 444.523438 909.738281 439.933594 914.746094 435.796875 C 918.4375 432.753906 922.640625 432.15625 927.113281 433.339844 C 931.769531 434.585938 934.164062 437.800781 933.835938 442.625 C 933.628906 445.839844 932.953125 449.023438 932.433594 452.226562 C 931.703125 456.75 931.238281 461.304688 931.835938 465.867188 C 932.082031 467.730469 932.472656 469.652344 933.199219 471.371094 C 935.097656 475.84375 938.519531 477.132812 942.902344 475.0625 C 944.621094 474.269531 946.21875 473.203125 947.765625 472.097656 C 956.480469 465.921875 962.410156 457.230469 968.628906 448.816406 C 969.589844 447.515625 969.523438 445.96875 969.746094 444.460938 C 972.488281 426.121094 982.359375 412.582031 997.980469 403.019531 C 1001.855469 400.667969 1006.160156 399.964844 1010.648438 400.796875 C 1017.136719 402.007812 1020.195312 407.339844 1018.0625 413.609375 C 1017.242188 415.988281 1015.902344 418.042969 1014.289062 419.941406 C 1008.347656 426.980469 1001.089844 432.078125 991.972656 433.910156 C 988.839844 434.535156 987.511719 436.070312 986.667969 438.894531 C 984.597656 445.773438 983.777344 452.652344 985.730469 459.703125 C 987.941406 467.714844 992.480469 471.046875 1000.710938 470.667969 C 1007.8125 470.34375 1013.976562 467.558594 1019.660156 463.515625 C 1027.113281 458.207031 1034.070312 452.277344 1041.105469 446.449219 C 1051.875 437.539062 1063.371094 429.839844 1076.820312 425.46875 C 1093.714844 419.996094 1111 418.367188 1128.671875 419.722656 C 1154.554688 421.699219 1179.875 426.992188 1205.199219 432.324219 C 1229.582031 437.460938 1254.007812 442.378906 1278.835938 444.914062 C 1299.578125 447.035156 1320.269531 446.984375 1340.921875 444.082031 C 1350.25 442.78125 1358.976562 439.464844 1367.15625 434.859375 C 1372.957031 431.582031 1378.613281 428.058594 1384.335938 424.652344 C 1385.46875 423.972656 1386.558594 423.101562 1387.796875 422.75 C 1389.265625 422.347656 1391.035156 422.425781 1391.929688 423.882812 C 1393.089844 425.730469 1391.269531 426.652344 1390.175781 427.484375 C 1376.46875 437.710938 1361.953125 446.269531 1344.628906 448.714844 C 1320.179688 452.160156 1295.714844 452.042969 1271.1875 449.285156 C 1241.640625 445.96875 1212.714844 439.269531 1183.648438 433.402344 C 1162.734375 429.203125 1141.757812 425.535156 1120.390625 424.753906 C 1091.503906 423.703125 1066.066406 432.324219 1044.527344 451.925781 C 1035.332031 460.300781 1025.460938 467.652344 1013.601562 472.019531 C 1004.679688 475.3125 995.835938 475.921875 986.859375 472.4375 C 980.8125 470.070312 975.898438 466.375 972.816406 460.511719 C 972.371094 459.675781 971.8125 458.910156 971.28125 458.128906 C 971.191406 458.011719 970.929688 458.011719 970.617188 457.933594 C 968.730469 458.546875 968.027344 460.457031 966.871094 461.875 C 962.515625 467.195312 957.730469 472.035156 952.226562 476.222656 C 943.785156 482.660156 932.132812 480.265625 925.996094 475.898438 C 922.742188 473.582031 920.871094 470.316406 919.699219 466.597656 C 917.894531 460.847656 918.011719 454.96875 918.726562 449.0625 C 918.921875 447.386719 919.699219 445.761719 919.246094 443.964844 C 917.554688 443.132812 916.90625 444.695312 916.097656 445.5 C 911.742188 449.804688 908.332031 454.863281 905.070312 460.015625 C 902.9375 463.398438 900.84375 466.804688 898.5 470.042969 C 895.746094 473.878906 892.441406 474.84375 888.007812 473.515625 C 884.039062 472.320312 882.167969 469.71875 881.917969 464.894531 C 881.683594 460.472656 882.609375 456.179688 883.597656 451.914062 C 886.875 437.773438 891.582031 424.128906 897.488281 410.875 C 899.164062 407.105469 901.101562 403.386719 901.699219 398.792969 C 898.839844 398.429688 897.265625 400.261719 895.613281 401.5 C 885.613281 408.953125 877.015625 417.796875 869.851562 428.007812 C 861.605469 439.75 855.089844 452.417969 849.914062 465.789062 C 848.273438 470.042969 846.6875 474.335938 844.503906 478.367188 C 842.839844 481.449219 840.339844 482.621094 836.921875 482.128906 C 833.214844 481.582031 831.550781 480.007812 831.222656 476.195312 C 830.886719 472.191406 831.40625 468.210938 832.09375 464.269531 C 833.265625 457.699219 834.90625 451.25 837.128906 444.953125 C 837.621094 443.5625 838.496094 442.222656 838.261719 440.21875 C 836.140625 440.46875 834.945312 441.960938 833.566406 443.015625 C 827.324219 447.789062 820.507812 451.535156 813.132812 454.253906 C 807.542969 456.320312 801.804688 457.726562 795.808594 456.855469 C 792.949219 456.4375 791.269531 457.53125 789.683594 459.808594 C 786.746094 464.023438 783.375 467.9375 779.382812 471.214844 C 769.824219 479.070312 758.992188 475.742188 755.246094 463.917969 C 753.839844 459.496094 753.777344 454.941406 753.789062 450.417969 C 751.566406 449.570312 750.953125 451.429688 750.042969 452.382812 C 742.890625 459.78125 735.453125 466.855469 727.230469 473.101562 C 723.589844 475.859375 719.820312 478.433594 715.722656 480.488281 C 710.820312 482.933594 705.644531 483.816406 700.207031 483.246094 C 691.011719 482.269531 684.910156 476.105469 684.027344 466.894531 C 683.675781 463.164062 684.328125 459.429688 684.523438 454.332031 C 682.558594 456.554688 681.453125 457.738281 680.425781 458.988281 C 673.558594 467.390625 666.769531 475.859375 659.8125 484.167969 C 655.285156 489.578125 650.332031 494.601562 644.75 498.957031 C 640.070312 502.613281 635.0625 505.683594 629.273438 507.28125 C 616.527344 510.820312 606.007812 505.316406 601.742188 492.78125 C 599.324219 485.652344 598.738281 478.238281 599.035156 470.785156 C 599.246094 466.050781 599.960938 461.328125 600.429688 456.59375 C 600.585938 454.996094 601.324219 453.355469 600.207031 451.378906 C 598.28125 452.589844 597.230469 454.410156 595.929688 455.945312 C 588.347656 464.816406 580.0625 472.90625 570.175781 479.214844 C 564.363281 482.933594 558.210938 485.847656 551.320312 487.015625 C 533.710938 490.023438 519.886719 479.199219 518.726562 461.40625 C 518.257812 454.097656 519.429688 446.984375 521.238281 439.933594 C 521.652344 438.292969 522.121094 436.667969 522.511719 435.226562 C 521.757812 434.09375 521.03125 434.523438 520.351562 434.796875 C 512.785156 437.890625 504.96875 439.179688 496.902344 437.398438 C 493.859375 436.722656 492.457031 438.007812 491.117188 440.480469 C 484.367188 452.863281 476.746094 464.699219 467.746094 475.597656 C 463.609375 480.605469 459.109375 485.234375 453.660156 488.863281 C 448.601562 492.246094 443.101562 494.039062 436.960938 493.636719 C 426.804688 492.960938 419.222656 488.316406 414.789062 479.03125 C 410.222656 469.445312 409.664062 459.25 410.613281 448.867188 C 410.898438 445.863281 411.394531 442.875 411.820312 439.609375 C 409.507812 439.570312 408.84375 441.402344 407.828125 442.523438 C 402.328125 448.609375 396.5 454.34375 389.6875 458.976562 C 387.617188 460.378906 385.5 461.511719 382.859375 461.539062 C 376.328125 461.589844 372.453125 458.066406 372.285156 451.523438 C 372.234375 449.257812 372.480469 446.957031 372.792969 444.707031 C 373.089844 442.484375 373.652344 440.296875 374.066406 438.253906 C 372.949219 437.554688 372.3125 438.035156 371.714844 438.4375 C 345.480469 456.542969 316.933594 458.261719 287.007812 450.535156 C 271.949219 446.632812 257.925781 440.335938 244.738281 432.195312 C 234.542969 425.898438 224.609375 419.175781 214.488281 412.738281 C 205.347656 406.898438 195.96875 401.40625 186.214844 396.648438 C 163.039062 385.359375 138.640625 379.558594 112.761719 381.378906 C 97.128906 382.484375 82.535156 387.308594 69.085938 395.308594 C 60.203125 400.601562 53.128906 407.625 49.96875 417.863281 C 49.789062 418.460938 49.4375 418.796875 48.199219 418.851562 C 46.820312 416.507812 47.65625 413.984375 48.550781 411.644531 C 50.386719 406.765625 53.351562 402.589844 57.03125 398.910156 C 65.757812 390.171875 76.578125 385.148438 88.128906 381.535156 C 108.246094 375.238281 128.625 375.667969 149.109375 379.648438 C 166.980469 383.121094 183.964844 389.050781 200.066406 397.570312 C 212.695312 404.242188 224.984375 411.488281 236.859375 419.433594 C 247.785156 426.746094 258.890625 433.714844 270.921875 439.140625 C 286.980469 446.359375 303.71875 450.207031 321.382812 449.039062 C 344.777344 447.464844 363.820312 436.824219 380.023438 420.421875 C 381.390625 419.03125 382.078125 417.261719 382.949219 415.570312 C 385.578125 410.5 388.085938 405.363281 391.039062 400.484375 C 393.796875 395.933594 400.726562 395.488281 404.382812 399.261719 C 405.710938 400.628906 405.304688 401.980469 404.667969 403.4375 C 402.40625 408.679688 400.195312 413.945312 397.90625 419.175781 C 394.171875 427.71875 390.351562 436.226562 386.667969 444.785156 C 385.421875 447.699219 384.121094 450.664062 383.835938 454.851562 C 389.789062 451.273438 394.210938 447.179688 398.207031 442.625 C 405.359375 434.457031 411.914062 425.820312 417.949219 416.792969 C 420.664062 412.722656 422.472656 412.097656 427.050781 413.359375 C 431.746094 414.648438 433.242188 416.820312 432.382812 421.789062 C 431.667969 425.914062 430.707031 429.996094 429.730469 434.066406 C 426.988281 445.589844 425.0625 457.207031 426 469.121094 C 426.347656 473.515625 427.011719 477.835938 428.820312 481.878906 C 431.667969 488.265625 434.582031 489.410156 441.019531 486.835938 C 443.878906 485.691406 446.496094 484.089844 448.769531 482.074219 C 451.476562 479.683594 454.195312 477.261719 456.574219 474.558594 C 466.847656 462.96875 475.328125 450.105469 483.027344 436.722656 C 483.949219 435.121094 485.304688 433.558594 482.882812 431.871094 C 466.730469 420.554688 462.828125 403.8125 463.351562 385.617188 C 463.933594 365.316406 471.0625 346.960938 481.949219 329.988281 C 484.328125 326.296875 487.03125 322.847656 490.441406 320.027344 C 500.742188 311.46875 513.277344 314.5625 518.234375 327.0625 C 521.378906 334.996094 521.863281 343.398438 521.261719 351.800781 C 519.925781 370.777344 514.929688 388.910156 507.660156 406.402344 C 504.589844 413.777344 501 420.929688 497.671875 428.203125 C 496.878906 429.90625 495.605469 431.414062 495.527344 433.664062 C 501.066406 436.058594 506.644531 435.03125 512.160156 433.558594 C 516.800781 432.3125 520.859375 429.777344 524.878906 427.1875 C 526.933594 425.859375 527.804688 423.742188 528.9375 421.777344 C 534.320312 412.527344 541.214844 404.867188 551.097656 400.25 C 556.910156 397.53125 562.816406 397.15625 568.835938 399.390625 C 575.691406 401.953125 577.523438 407 574 413.476562 C 569.164062 422.386719 557.378906 428.371094 547.429688 426.417969 C 542.671875 425.484375 542.421875 426.378906 540.863281 429.605469 C 535.855469 440 532.488281 450.820312 531.617188 462.382812 C 531.265625 467 531.746094 471.511719 533.566406 475.804688 C 535.972656 481.488281 539.523438 483.675781 545.675781 483.101562 C 552.0625 482.515625 557.808594 480.007812 563.285156 476.820312 C 571.414062 472.085938 578.398438 465.933594 584.820312 459.105469 C 591.609375 451.886719 597.605469 444.003906 603.472656 436.03125 C 604.863281 434.132812 605.644531 432.050781 606.304688 429.851562 C 618.792969 388.402344 637.402344 349.734375 659.890625 312.886719 C 667.550781 300.332031 676.769531 288.925781 687.097656 278.445312 C 691.257812 274.214844 695.71875 270.355469 701.117188 267.777344 C 706.65625 265.125 712.378906 264.292969 718.296875 266.320312 C 723.332031 268.066406 726.59375 271.394531 727.792969 276.765625 C 729.128906 282.722656 728.296875 288.523438 726.996094 294.296875 C 724.34375 306.109375 719.480469 317.019531 713.421875 327.453125 C 700.21875 350.199219 683.300781 369.957031 664.46875 388.167969 C 652.8125 399.417969 640.71875 410.148438 627.089844 419.007812 C 625.527344 420.019531 624.644531 421.320312 624.058594 422.972656 C 618.089844 439.855469 612.523438 456.84375 610.507812 474.765625 C 609.871094 480.488281 610.011719 486.160156 610.9375 491.828125 C 611.429688 494.875 612.355469 497.761719 614.007812 500.375 C 616.320312 504.03125 618.324219 504.875 622.667969 504.042969 C 628 503.027344 632.707031 500.558594 637.15625 497.554688 C 642.863281 493.703125 647.753906 488.890625 652.527344 483.960938 C 664.207031 471.929688 675.027344 459.144531 685.667969 446.191406 C 687.617188 443.808594 689.113281 441.222656 690.375 438.425781 C 692.558594 433.546875 695.121094 428.878906 698.632812 424.792969 C 703.132812 419.550781 708.609375 416.039062 715.59375 415.144531 C 718.503906 414.765625 721.3125 415.15625 723.929688 416.40625 C 726.269531 417.523438 727.871094 419.433594 728.402344 422.011719 C 728.726562 423.609375 728.390625 425.222656 726.621094 425.71875 C 724.773438 426.238281 724.695312 424.625 724.175781 423.375 C 721.964844 418.109375 719.675781 417.640625 715.1875 421.398438 C 712.378906 423.753906 710.296875 426.71875 708.554688 429.90625 C 702.964844 440.179688 699.140625 451.121094 696.917969 462.578125 C 696.109375 466.699219 695.925781 470.914062 697.539062 474.972656 C 699.203125 479.136719 701.066406 480.28125 705.460938 479.628906 C 709.882812 478.964844 713.769531 476.898438 717.515625 474.636719 C 727.375 468.703125 735.984375 461.210938 743.96875 452.992188 C 750.199219 446.59375 756.363281 440.167969 759.914062 431.660156 C 761.671875 427.472656 763.984375 422.933594 767.78125 420.617188 C 772.320312 417.863281 774.3125 413.726562 776.953125 409.691406 C 781.398438 402.890625 787.835938 399.859375 796.03125 400.886719 C 803.25 401.785156 807.269531 406.128906 807.566406 413.386719 C 807.8125 419.1875 806.449219 424.730469 804.691406 430.191406 C 802.585938 436.722656 799.671875 442.925781 796.523438 449.011719 C 795.757812 450.496094 794.484375 451.796875 794.601562 454.203125 " fill-opacity="1" fill-rule="nonzero"/></g></svg>